<svg xmlns="http://www.w3.org/2000/svg" width="596" height="192" viewBox="0 0 596 192"><title>語意与左侧标志</title><path fill="#000000" fill-rule="evenodd" d="M 486.5,17.5 Q 486,11 498.5,12 Q 511,13 511,13.5 Q 511,14 511.5,14 Q 512,14 512,15.5 Q 512,17 509.5,19 Q 507,21 507,25 Q 507,29 523,29 Q 539,29 539,28.5 Q 539,28 541,28 Q 543,28 547.5,23 Q 552,18 554,18 Q 556,18 556.5,19.5 Q 557,21 558,21 Q 559,21 559,21.5 Q 559,22 560.5,22.5 Q 562,23 564.5,26 Q 567,29 568,29 Q 569,29 569,30 Q 569,31 570,31.5 Q 571,32 571,33.5 Q 571,35 570.5,35 Q 570,35 570,35.5 Q 570,36 555,36 Q 540,36 540,36.5 Q 540,37 539.5,37 Q 539,37 539,37.5 Q 539,38 539.5,38 Q 540,38 539.5,41 Q 539,44 537.5,44.5 Q 536,45 536,45.5 Q 536,46 535,46 Q 534,46 534,46.5 Q 534,47 533.5,47 Q 533,47 532.5,48 Q 532,49 531,49 Q 530,49 529.5,50 Q 529,51 528,51 Q 527,51 525.5,54 Q 524,57 524.5,57 Q 525,57 525,57.5 Q 525,58 537,58 Q 549,58 549,57.5 Q 549,57 550,57 Q 551,57 551,56.5 Q 551,56 552,56 Q 553,56 553,55.5 Q 553,55 554,54.5 Q 555,54 555.5,52 Q 556,50 557,50 Q 558,50 559,48.5 Q 560,47 561.5,47 Q 563,47 563,47.5 Q 563,48 565,48.5 Q 567,49 568,50.5 Q 569,52 570,52 Q 571,52 572,53.5 Q 573,55 574,55 Q 575,55 575.5,56.5 Q 576,58 577,58 Q 578,58 578,59.5 Q 578,61 578.5,61 Q 579,61 578.5,62.5 Q 578,64 554.5,64 Q 531,64 518,64 Q 505,64 505,64.5 Q 505,65 498.5,65 Q 492,65 492,64.5 Q 492,64 488.5,64 Q 485,64 485,64.5 Q 485,65 453,65 Q 421,65 421,64.5 Q 421,64 420,64 Q 419,64 419,63.5 Q 419,63 417.5,62.5 Q 416,62 416,59.5 Q 416,57 415.5,57 Q 415,57 415.5,56 Q 416,55 424.5,55.5 Q 433,56 433,56.5 Q 433,57 448.5,57 Q 464,57 464,56.5 Q 464,56 465,56 Q 466,56 466,53.5 Q 466,51 465.5,51 Q 465,51 464,46.5 Q 463,42 462.5,42 Q 462,42 460,39.5 Q 458,37 457,37 Q 456,37 456,36.5 Q 456,36 442,36 Q 428,36 427.5,34.5 Q 427,33 426.5,33 Q 426,33 426,32 Q 426,31 425.5,31 Q 425,31 425,29.5 Q 425,28 424.5,28 Q 424,28 424,27.5 Q 424,27 424.5,27 Q 425,27 425,26.5 Q 425,26 428.5,26 Q 432,26 432,26.5 Q 432,27 434.5,27 Q 437,27 437,27.5 Q 437,28 460,28.5 Q 483,29 483,29.5 Q 483,30 485,30 Q 487,30 487,29.5 Q 487,29 487.5,29 Q 488,29 488,26.5 Q 488,24 487.5,24 Q 487,24 486.5,17.5 Z M 11.5,15 Q 12,14 94.5,14.5 Q 177,15 177,15.5 Q 177,16 177.5,16 Q 178,16 178,32.5 Q 178,49 178.5,49 Q 179,49 178.5,50 Q 178,51 178.5,51 Q 179,51 179,95.5 Q 179,140 179.5,140 Q 180,140 180,147.5 Q 180,155 179.5,155 Q 179,155 179,156 Q 179,157 179.5,157 Q 180,157 180,158.5 Q 180,160 179.5,160 Q 179,160 179,160.5 Q 179,161 179.5,161 Q 180,161 180,164.5 Q 180,168 179.5,168 Q 179,168 179,168.5 Q 179,169 179.5,169 Q 180,169 180,171.5 Q 180,174 179,174 Q 178,174 136.5,174 Q 95,174 95,174.5 Q 95,175 94.5,175 Q 94,175 94,174.5 Q 94,174 55,174 Q 16,174 16,173.5 Q 16,173 15,173 Q 14,173 14,162 Q 14,151 13.5,151 Q 13,151 13,150 Q 13,149 13.5,149 Q 14,149 14,148.5 Q 14,148 13.5,148 Q 13,148 13,147 Q 13,146 13.5,146 Q 14,146 14,145 Q 14,144 13.5,144 Q 13,144 13,136 Q 13,128 13.5,128 Q 14,128 14,127.5 Q 14,127 13.5,127 Q 13,127 13,110.5 Q 13,94 12.5,94 Q 12,94 12,89 Q 12,84 12.5,84 Q 13,84 13,82.5 Q 13,81 12.5,81 Q 12,81 12,48.5 Q 12,16 11.5,16 Q 11,16 11.5,15 Z M 270,14.5 Q 270,14 272.5,14 Q 275,14 276,15.5 Q 277,17 278,17 Q 279,17 279.5,18 Q 280,19 281,19 Q 282,19 282,20 Q 282,21 284.5,23 Q 287,25 287,27 Q 287,29 286.5,29 Q 286,29 286,29.5 Q 286,30 265,30 Q 244,30 243,30 Q 242,30 242,30.5 Q 242,31 238,31 Q 234,31 234,30.5 Q 234,30 233,30 Q 232,30 231.5,28.5 Q 231,27 230.5,27 Q 230,27 229.5,24 Q 229,21 245.5,21.5 Q 262,22 262,21.5 Q 262,21 263,21 Q 264,21 264,20.5 Q 264,20 266,18.5 Q 268,17 268,16 Q 268,15 269,15 Q 270,15 270,14.5 Z M 371,14.5 Q 371,14 372,14 Q 373,14 373.5,15 Q 374,16 375.5,16.5 Q 377,17 377,18 Q 377,19 378,19 Q 379,19 379.5,20 Q 380,21 381,21 Q 382,21 382,21.5 Q 382,22 384,23.5 Q 386,25 386.5,27.5 Q 387,30 386.5,30 Q 386,30 386,30.5 Q 386,31 367.5,31 Q 349,31 349,31.5 Q 349,32 346.5,32 Q 344,32 344,32.5 Q 344,33 343,33 Q 342,33 342,33.5 Q 342,34 341,34.5 Q 340,35 340,38 Q 340,41 339.5,41 Q 339,41 339,42.5 Q 339,44 338.5,44 Q 338,44 338,48 Q 338,52 338.5,52 Q 339,52 339.5,53 Q 340,54 342,54 Q 344,54 344,54.5 Q 344,55 344.5,55 Q 345,55 345,54.5 Q 345,54 349,54 Q 353,54 353,53.5 Q 353,53 354.5,53 Q 356,53 357,51.5 Q 358,50 359,50 Q 360,50 360,49 Q 360,48 361,48 Q 362,48 362,47.5 Q 362,47 364.5,47 Q 367,47 368,49 Q 369,51 370.5,51 Q 372,51 372.5,52 Q 373,53 374,53 Q 375,53 375,53.5 Q 375,54 377,55.5 Q 379,57 379,59 Q 379,61 377,62.5 Q 375,64 375,66 Q 375,68 374.5,68 Q 374,68 374,79 Q 374,90 374.5,90 Q 375,90 375,90.5 Q 375,91 376.5,91 Q 378,91 379,88 Q 380,85 380.5,85 Q 381,85 381.5,84 Q 382,83 383,83 Q 384,83 384,83.5 Q 384,84 385,84 Q 386,84 386,84.5 Q 386,85 391,89.5 Q 396,94 396.5,96.5 Q 397,99 396.5,99 Q 396,99 396,99.5 Q 396,100 385.5,100 Q 375,100 375,100.5 Q 375,101 364,101 Q 353,101 353,100.5 Q 353,100 346.5,100 Q 340,100 340,100.5 Q 340,101 337.5,101 Q 335,101 315,101 Q 295,101 295,100.5 Q 295,100 294,100 Q 293,100 293,98.5 Q 293,97 292.5,97 Q 292,97 292,96 Q 292,95 291.5,95 Q 291,95 291,93.5 Q 291,92 297,92 Q 303,92 303,92.5 Q 303,93 306.5,93 Q 310,93 310,92.5 Q 310,92 311,92 Q 312,92 312,91 Q 312,90 312.5,90 Q 313,90 313,89 Q 313,88 313.5,88 Q 314,88 314,87 Q 314,86 314.5,86 Q 315,86 315,83.5 Q 315,81 315.5,81 Q 316,81 316,78.5 Q 316,76 316.5,76 Q 317,76 317.5,69 Q 318,62 317.5,62 Q 317,62 317,61.5 Q 317,61 310.5,61 Q 304,61 304,60.5 Q 304,60 302.5,59.5 Q 301,59 301,58 Q 301,57 300,56.5 Q 299,56 299,54.5 Q 299,53 299.5,53 Q 300,53 300,52.5 Q 300,52 302.5,52 Q 305,52 305,52.5 Q 305,53 312.5,53 Q 320,53 320.5,48.5 Q 321,44 321.5,44 Q 322,44 322,39 Q 322,34 321.5,34 Q 321,34 320.5,32.5 Q 320,31 310,31.5 Q 300,32 300,31.5 Q 300,31 299,31 Q 298,31 298,30 Q 298,29 296.5,28 Q 295,27 294.5,25 Q 294,23 294.5,23 Q 295,23 295,22.5 Q 295,22 297.5,22 Q 300,22 300,22.5 Q 300,23 308.5,23 Q 317,23 317,23.5 Q 317,24 325.5,24 Q 334,24 334,24.5 Q 334,25 346,25 Q 358,25 358,24.5 Q 358,24 359.5,24 Q 361,24 361,23.5 Q 361,23 364.5,20 Q 368,17 368,16 Q 368,15 369.5,15 Q 371,15 371,14.5 Z M 95,23.5 Q 22,23 21.5,23 Q 21,23 20.5,29 Q 20,35 20.5,35 Q 21,35 21,40.5 Q 21,46 21.5,46 Q 22,46 22,60 Q 22,74 22.5,74 Q 23,74 23,74.5 Q 23,75 32.5,75 Q 42,75 42,74.5 Q 42,74 45,74 Q 48,74 48,74.5 Q 48,75 77.5,75 Q 107,75 107,74.5 Q 107,74 108,73.5 Q 109,73 109,72 Q 109,71 109.5,71 Q 110,71 110,69.5 Q 110,68 113,68 Q 116,68 116,68.5 Q 116,69 119,70 Q 122,71 123,72.5 Q 124,74 125,74 Q 126,74 127,75.5 Q 128,77 129.5,77.5 Q 131,78 131,79 Q 131,80 131.5,80 Q 132,80 131.5,81.5 Q 131,83 128,84 Q 125,85 125,89 Q 125,93 125.5,93 Q 126,93 125.5,95.5 Q 125,98 125.5,98 Q 126,98 126.5,131.5 Q 127,165 140.5,165 Q 154,165 154,165.5 Q 154,166 162.5,166 Q 171,166 171,164 Q 171,162 170.5,162 Q 170,162 170,147.5 Q 170,133 169.5,133 Q 169,133 169.5,130 Q 170,127 169.5,127 Q 169,127 169,87 Q 169,47 168.5,47 Q 168,47 168,35.5 Q 168,24 95,23.5 Z M 495.5,36 Q 476,36 475.5,36 Q 475,36 474.5,37 Q 474,38 474.5,38 Q 475,38 475.5,39 Q 476,40 477,40 Q 478,40 478,40.5 Q 478,41 479,41.5 Q 480,42 480,43 Q 480,44 481,44.5 Q 482,45 482.5,48.5 Q 483,52 483.5,52 Q 484,52 484,54.5 Q 484,57 484.5,57 Q 485,57 485,57.5 Q 485,58 496.5,58 Q 508,58 508,57.5 Q 508,57 509,57 Q 510,57 510.5,56 Q 511,55 512,54.5 Q 513,54 513,52.5 Q 513,51 513.5,51 Q 514,51 514.5,45.5 Q 515,40 515.5,40 Q 516,40 516,39.5 Q 516,39 515.5,39 Q 515,39 515,37.5 Q 515,36 495.5,36 Z M 278.5,37 Q 279,36 281.5,36.5 Q 284,37 284,37.5 Q 284,38 285.5,38.5 Q 287,39 289.5,42 Q 292,45 293,45 Q 294,45 294,45.5 Q 294,46 295,46.5 Q 296,47 296,49 Q 296,51 295.5,51 Q 295,51 295,51.5 Q 295,52 289.5,52 Q 284,52 284,52.5 Q 284,53 261,53 Q 238,53 232,53 Q 226,53 225.5,51.5 Q 225,50 224.5,50 Q 224,50 224,48 Q 224,46 223.5,46 Q 223,46 223,45.5 Q 223,45 224.5,45 Q 226,45 226,44.5 Q 226,44 231,44 Q 236,44 236,44.5 Q 236,45 248,45 Q 260,45 260,45.5 Q 260,46 265,46 Q 270,46 270,45.5 Q 270,45 271.5,45 Q 273,45 273,44.5 Q 273,44 274.5,43 Q 276,42 276,41 Q 276,40 276.5,40 Q 277,40 277,39 Q 277,38 277.5,38 Q 278,38 278.5,37 Z M 269.5,63 Q 271,60 273,60 Q 275,60 275,60.5 Q 275,61 277,61.5 Q 279,62 280.5,64 Q 282,66 283,66 Q 284,66 284,66.5 Q 284,67 285,67.5 Q 286,68 286,69 Q 286,70 287.5,71 Q 289,72 289,73.5 Q 289,75 286.5,75 Q 284,75 284,75.5 Q 284,76 268,76 Q 252,76 252,76.5 Q 252,77 248.5,77 Q 245,77 239.5,77 Q 234,77 234,76.5 Q 234,76 232.5,75 Q 231,74 230,71 Q 229,68 231.5,67.5 Q 234,67 234,67.5 Q 234,68 239.5,68 Q 245,68 245,68.5 Q 245,69 253.5,69 Q 262,69 262,68.5 Q 262,68 263.5,68 Q 265,68 265.5,67 Q 266,66 267,66 Q 268,66 269.5,63 Z M 348.5,61.5 Q 341,61 340.5,61 Q 340,61 340,61.5 Q 340,62 338.5,62 Q 337,62 337,63 Q 337,64 336.5,64 Q 336,64 336,65 Q 336,66 335.5,66 Q 335,66 334.5,71.5 Q 334,77 333.5,77 Q 333,77 333,79.5 Q 333,82 332.5,82 Q 332,82 332,87 Q 332,92 332.5,92 Q 333,92 333.5,93 Q 334,94 341,94 Q 348,94 352.5,94 Q 357,94 357,80.5 Q 357,67 356.5,67 Q 356,67 356,64.5 Q 356,62 348.5,61.5 Z M 540,68.5 Q 540,68 543.5,69 Q 547,70 550,73.5 Q 553,77 554,77 Q 555,77 555,77.5 Q 555,78 556,78.5 Q 557,79 557,80.5 Q 557,82 556.5,82 Q 556,82 556,82.5 Q 556,83 554.5,84 Q 553,85 553,86 Q 553,87 552.5,87 Q 552,87 552,104 Q 552,121 552.5,121 Q 553,121 553,123 Q 553,125 552.5,125 Q 552,125 551.5,126 Q 551,127 549.5,127 Q 548,127 548,127.5 Q 548,128 543.5,129 Q 539,130 539,129.5 Q 539,129 537.5,129 Q 536,129 534,126 Q 532,123 524.5,123 Q 517,123 517,122.5 Q 517,122 492,122 Q 467,122 467,122.5 Q 467,123 466,123 Q 465,123 465,123.5 Q 465,124 462.5,126 Q 460,128 460,128.5 Q 460,129 458.5,129 Q 457,129 457,129.5 Q 457,130 451.5,130 Q 446,130 446,129.5 Q 446,129 445.5,129 Q 445,129 445,109.5 Q 445,90 444.5,90 Q 444,90 444,84 Q 444,78 443.5,78 Q 443,78 443,75 Q 443,72 442.5,72 Q 442,72 442.5,70.5 Q 443,69 445.5,69 Q 448,69 448,69.5 Q 448,70 452.5,71 Q 457,72 457.5,73 Q 458,74 460,74 Q 462,74 462,74.5 Q 462,75 496,75 Q 530,75 530,74.5 Q 530,74 531.5,74 Q 533,74 534,72.5 Q 535,71 536,71 Q 537,71 537,70.5 Q 537,70 538.5,69.5 Q 540,69 540,68.5 Z M 499,82 Q 466,82 465.5,82 Q 465,82 464.5,83.5 Q 464,85 463.5,85 Q 463,85 463,89.5 Q 463,94 463.5,94 Q 464,94 464,94.5 Q 464,95 497,95.5 Q 530,96 531.5,95.5 Q 533,95 533,90 Q 533,85 532.5,85 Q 532,85 532,83.5 Q 532,82 499,82 Z M 64,84 Q 23,84 22.5,84 Q 22,84 22,103 Q 22,122 22.5,122 Q 23,122 23,143 Q 23,164 23.5,164 Q 24,164 24,164.5 Q 24,165 26,165 Q 28,165 28,164.5 Q 28,164 35,164 Q 42,164 42,164.5 Q 42,165 74,165 Q 106,165 106.5,165 Q 107,165 107,160 Q 107,155 107.5,155 Q 108,155 108,154 Q 108,153 107.5,153 Q 107,153 107,120 Q 107,87 106.5,87 Q 106,87 105.5,85.5 Q 105,84 64,84 Z M 273,84.5 Q 273,84 274.5,84 Q 276,84 276,84.5 Q 276,85 278,85.5 Q 280,86 281.5,88 Q 283,90 284,90 Q 285,90 285,90.5 Q 285,91 286,91.5 Q 287,92 287,93 Q 287,94 287.5,94 Q 288,94 288,96.5 Q 288,99 287.5,99 Q 287,99 287,99.5 Q 287,100 285.5,100 Q 284,100 284,99.5 Q 284,99 281.5,99 Q 279,99 279,99.5 Q 279,100 261.5,100 Q 244,100 241.5,100 Q 239,100 239,100.5 Q 239,101 235.5,100.5 Q 232,100 232,98.5 Q 232,97 231.5,97 Q 231,97 231,96 Q 231,95 230.5,95 Q 230,95 230,93 Q 230,91 235,91 Q 240,91 240,91.5 Q 240,92 252.5,92 Q 265,92 265,91.5 Q 265,91 266.5,90.5 Q 268,90 268,89 Q 268,88 268.5,88 Q 269,88 270,86.5 Q 271,85 272,85 Q 273,85 273,84.5 Z M 498,102 Q 464,102 463.5,102 Q 463,102 463,106.5 Q 463,111 463.5,111 Q 464,111 464,113 Q 464,115 465,115 Q 466,115 466,115.5 Q 466,116 497.5,116 Q 529,116 529,115.5 Q 529,115 530.5,115 Q 532,115 532,114.5 Q 532,114 533,113.5 Q 534,113 534,110 Q 534,107 533.5,107 Q 533,107 533,105 Q 533,103 532.5,103 Q 532,103 532,102.5 Q 532,102 498,102 Z M 366.5,111 Q 369,108 371.5,108 Q 374,108 375,109.5 Q 376,111 377,111 Q 378,111 379,112.5 Q 380,114 381,114 Q 382,114 383.5,116 Q 385,118 386,118 Q 387,118 387,120.5 Q 387,123 385.5,124 Q 384,125 384,126.5 Q 384,128 383.5,128 Q 383,128 383,146.5 Q 383,165 383.5,165 Q 384,165 383.5,170 Q 383,175 381.5,175.5 Q 380,176 380,176.5 Q 380,177 378,177 Q 376,177 376,177.5 Q 376,178 375,178 Q 374,178 374,178.5 Q 374,179 371,179 Q 368,179 368,179.5 Q 368,180 367,180 Q 366,180 366,179.5 Q 366,179 365,178.5 Q 364,178 364,173.5 Q 364,169 363.5,169 Q 363,169 363,167.5 Q 363,166 344,166 Q 325,166 325,166.5 Q 325,167 324.5,167 Q 324,167 324,169.5 Q 324,172 323.5,172 Q 323,172 323,173.5 Q 323,175 322.5,175 Q 322,175 321,176.5 Q 320,178 319,178 Q 318,178 318,178.5 Q 318,179 317,179 Q 316,179 316,179.5 Q 316,180 314.5,180 Q 313,180 313,180.5 Q 313,181 311,181 Q 309,181 309,180.5 Q 309,180 307.5,180 Q 306,180 306,179.5 Q 306,179 305.5,179 Q 305,179 305,156 Q 305,133 304.5,133 Q 304,133 304,126 Q 304,119 303.5,119 Q 303,119 302.5,114 Q 302,109 306,109.5 Q 310,110 310,110.5 Q 310,111 314.5,112 Q 319,113 319,113.5 Q 319,114 320,114 Q 321,114 321,114.5 Q 321,115 335,115.5 Q 349,116 349,115.5 Q 349,115 355.5,115 Q 362,115 362,114.5 Q 362,114 363,114 Q 364,114 366.5,111 Z M 273.5,112 Q 275,110 278,110.5 Q 281,111 282.5,113 Q 284,115 285,115 Q 286,115 286.5,116 Q 287,117 288,117 Q 289,117 289,118 Q 289,119 290.5,120 Q 292,121 291.5,123.5 Q 291,126 290,126 Q 289,126 289,126.5 Q 289,127 288,127.5 Q 287,128 287,134 Q 287,140 287.5,140 Q 288,140 288,140.5 Q 288,141 287.5,141 Q 287,141 287,143.5 Q 287,146 287.5,146 Q 288,146 288,146.5 Q 288,147 287.5,147 Q 287,147 287,148.5 Q 287,150 287.5,150 Q 288,150 288,160 Q 288,170 287.5,170 Q 287,170 286.5,171.5 Q 286,173 279,174.5 Q 272,176 271.5,174.5 Q 271,173 270.5,173 Q 270,173 269.5,170 Q 269,167 268,167 Q 267,167 267,166.5 Q 267,166 259.5,166 Q 252,166 251.5,167.5 Q 251,169 250.5,169 Q 250,169 250,171 Q 250,173 249,173.5 Q 248,174 248,175 Q 248,176 247.5,176 Q 247,176 246,177.5 Q 245,179 244,179 Q 243,179 243,179.5 Q 243,180 238,180 Q 233,180 233,179.5 Q 233,179 232.5,179 Q 232,179 232,176.5 Q 232,174 231.5,174 Q 231,174 231,172 Q 231,170 231.5,170 Q 232,170 232,154 Q 232,138 231.5,138 Q 231,138 231,132 Q 231,126 230.5,126 Q 230,126 230,120.5 Q 230,115 229.5,115 Q 229,115 229,113 Q 229,111 233,111.5 Q 237,112 237,112.5 Q 237,113 238.5,113 Q 240,113 240,113.5 Q 240,114 242.5,114 Q 245,114 245,114.5 Q 245,115 246.5,115 Q 248,115 248,115.5 Q 248,116 249.5,116 Q 251,116 251,116.5 Q 251,117 257.5,117 Q 264,117 264,116.5 Q 264,116 266.5,116 Q 269,116 269,115.5 Q 269,115 270.5,114.5 Q 272,114 273.5,112 Z M 340,122 Q 327,122 325.5,122.5 Q 324,123 324,124.5 Q 324,126 323.5,126 Q 323,126 323,139 Q 323,152 323.5,152 Q 324,152 324,153.5 Q 324,155 323.5,155 Q 323,155 323,155.5 Q 323,156 323.5,156 Q 324,156 324,157.5 Q 324,159 326.5,159 Q 329,159 329,159.5 Q 329,160 344,160 Q 359,160 361,160 Q 363,160 363,159 Q 363,158 363.5,158 Q 364,158 364,142 Q 364,126 363.5,126 Q 363,126 363,124.5 Q 363,123 358,123 Q 353,123 353,122.5 Q 353,122 340,122 Z M 258,124 Q 253,124 251.5,124.5 Q 250,125 250,126 Q 250,127 249.5,127 Q 249,127 249,142 Q 249,157 249.5,157 Q 250,157 250.5,158 Q 251,159 258.5,159 Q 266,159 268,158.5 Q 270,158 270,144.5 Q 270,131 269.5,131 Q 269,131 269,128.5 Q 269,126 268.5,126 Q 268,126 268,125.5 Q 268,125 265.5,125 Q 263,125 263,124.5 Q 263,124 258,124 Z M 486,127.5 Q 486,127 491.5,127.5 Q 497,128 497,128.5 Q 497,129 501.5,130 Q 506,131 506,131.5 Q 506,132 508.5,132.5 Q 511,133 511.5,134 Q 512,135 513,135 Q 514,135 514,136 Q 514,137 515,137 Q 516,137 516.5,138.5 Q 517,140 517.5,140 Q 518,140 518,141 Q 518,142 518.5,142 Q 519,142 519,145.5 Q 519,149 518.5,149 Q 518,149 518,150.5 Q 518,152 517.5,152 Q 517,152 516.5,153 Q 516,154 514,154 Q 512,154 512,154.5 Q 512,155 509,154.5 Q 506,154 506,153.5 Q 506,153 504,151.5 Q 502,150 502,149 Q 502,148 501,147.5 Q 500,147 500,146 Q 500,145 498,143.5 Q 496,142 496,141 Q 496,140 495.5,140 Q 495,140 494,138.5 Q 493,137 492,137 Q 491,137 491,136.5 Q 491,136 487.5,133 Q 484,130 484,129 Q 484,128 485,128 Q 486,128 486,127.5 Z M 458,136 Q 458,132 467.5,132 Q 477,132 477,132.5 Q 477,133 479,133 Q 481,133 481,133.5 Q 481,134 481.5,134 Q 482,134 482,135.5 Q 482,137 481.5,137 Q 481,137 481,137.5 Q 481,138 480,138.5 Q 479,139 479,140 Q 479,141 478.5,141 Q 478,141 478,149.5 Q 478,158 478.5,158 Q 479,158 479,160 Q 479,162 479.5,162 Q 480,162 480,162.5 Q 480,163 481.5,163 Q 483,163 483,162.5 Q 483,162 487,162 Q 491,162 491,162.5 Q 491,163 508,163 Q 525,163 525,162.5 Q 525,162 526,162 Q 527,162 527.5,161 Q 528,160 529.5,159.5 Q 531,159 532,154.5 Q 533,150 534,149.5 Q 535,149 535,147.5 Q 535,146 536,146 Q 537,146 537,145.5 Q 537,145 538,145 Q 539,145 539,151.5 Q 539,158 539.5,158 Q 540,158 540.5,159.5 Q 541,161 543,162.5 Q 545,164 545.5,168 Q 546,172 545.5,172 Q 545,172 544,173.5 Q 543,175 541.5,175 Q 540,175 540,175.5 Q 540,176 537,176.5 Q 534,177 534,177.5 Q 534,178 521.5,178 Q 509,178 509,178.5 Q 509,179 488.5,178.5 Q 468,178 468,177.5 Q 468,177 467,177 Q 466,177 466,176.5 Q 466,176 464,174.5 Q 462,173 461.5,167.5 Q 461,162 460.5,162 Q 460,162 460,153.5 Q 460,145 459.5,145 Q 459,145 459,142.5 Q 459,140 458.5,140 Q 458,140 458,136 Z M 542,137 Q 541,134 543,134 Q 545,134 545,134.5 Q 545,135 547,135 Q 549,135 549,135.5 Q 549,136 550,136 Q 551,136 551,136.5 Q 551,137 552,137 Q 553,137 553,137.5 Q 553,138 555,138 Q 557,138 557,138.5 Q 557,139 558,139 Q 559,139 559,139.5 Q 559,140 562,141 Q 565,142 565,142.5 Q 565,143 565.5,143 Q 566,143 566.5,144 Q 567,145 568,145 Q 569,145 569.5,146 Q 570,147 571,147 Q 572,147 572,148 Q 572,149 573,149.5 Q 574,150 574,151 Q 574,152 575.5,153 Q 577,154 577,155 Q 577,156 577.5,156 Q 578,156 578,157 Q 578,158 578.5,158 Q 579,158 579.5,161.5 Q 580,165 579.5,165 Q 579,165 579,167.5 Q 579,170 578.5,170 Q 578,170 578,170.5 Q 578,171 576.5,171.5 Q 575,172 575,172.5 Q 575,173 571,173 Q 567,173 567,172.5 Q 567,172 565.5,171 Q 564,170 564,169 Q 564,168 563,167.5 Q 562,167 561.5,164.5 Q 561,162 560.5,162 Q 560,162 560,161 Q 560,160 559,159.5 Q 558,159 557.5,157 Q 557,155 556,155 Q 555,155 555,153.5 Q 555,152 553.5,151 Q 552,150 552,149 Q 552,148 551,148 Q 550,148 549.5,146.5 Q 549,145 546,142.5 Q 543,140 542,137 Z M 442,135.5 Q 442,135 444,135 Q 446,135 446,136.5 Q 446,138 446.5,138 Q 447,138 446.5,139 Q 446,140 446.5,140 Q 447,140 447,141.5 Q 447,143 447.5,143 Q 448,143 448,143.5 Q 448,144 447.5,144 Q 447,144 447,148 Q 447,152 446.5,152 Q 446,152 446,154 Q 446,156 445.5,156 Q 445,156 445,159 Q 445,162 444.5,162 Q 444,162 444,163 Q 444,164 443,164.5 Q 442,165 442,166 Q 442,167 441.5,167 Q 441,167 439.5,169 Q 438,171 437,171 Q 436,171 436,171.5 Q 436,172 435,172 Q 434,172 434,172.5 Q 434,173 433,173 Q 432,173 432,173.5 Q 432,174 430,174 Q 428,174 428,174.5 Q 428,175 427,175 Q 426,175 426,174.5 Q 426,174 424.5,174 Q 423,174 423,173.5 Q 423,173 422,173 Q 421,173 421,172.5 Q 421,172 420,171.5 Q 419,171 419,170 Q 419,169 418.5,169 Q 418,169 418,165.5 Q 418,162 418.5,162 Q 419,162 422,158.5 Q 425,155 426,155 Q 427,155 427.5,154 Q 428,153 429,153 Q 430,153 431,151.5 Q 432,150 433,150 Q 434,150 434,149.5 Q 434,149 436,147.5 Q 438,146 438,145 Q 438,144 438.5,144 Q 439,144 439,143 Q 439,142 439.5,142 Q 440,142 440,141 Q 440,140 440.5,140 Q 441,140 441,138 Q 441,136 441.5,136 Q 442,136 442,135.5 Z"/></svg>